<?xml version="1.0" encoding="utf-8"?>
<!-- Generator: Adobe Illustrator 21.1.0, SVG Export Plug-In . SVG Version: 6.00 Build 0)  -->
<svg version="1.1" id="Capa_1" xmlns="http://www.w3.org/2000/svg" xmlns:xlink="http://www.w3.org/1999/xlink" x="0px" y="0px"
	 viewBox="0 0 199.3 199.3" style="enable-background:new 0 0 199.3 199.3;" xml:space="preserve">
<path d="M124.5,99.7L197,27.1c3-3,3-8,0-11L183.2,2.3c-3-3-8-3-11,0L99.7,74.8L27.2,2.3c-3-3-8-3-11,0L2.3,16.2c-3,3-3,8,0,11
	l72.5,72.5L2.3,172.1c-3,3-3,8,0,11L16.2,197c3,3,8,3,11,0l72.5-72.5l72.5,72.5c3,3,8,3,11,0l13.8-13.8c3-3,3-8,0-11L124.5,99.7z"/>
</svg>
