<?xml version="1.0" encoding="utf-8"?>
<!-- Generator: Adobe Illustrator 21.1.0, SVG Export Plug-In . SVG Version: 6.00 Build 0)  -->
<svg version="1.1" id="Capa_1" xmlns="http://www.w3.org/2000/svg" xmlns:xlink="http://www.w3.org/1999/xlink" x="0px" y="0px"
	 viewBox="0 0 252.4 221.2" style="enable-background:new 0 0 252.4 221.2;" xml:space="preserve">
<path d="M246.5,40.3H5.9c-3.3,0-5.9-2.7-5.9-5.9V5.9C0,2.7,2.7,0,5.9,0h240.5c3.3,0,5.9,2.7,5.9,5.9v28.4
	C252.4,37.6,249.7,40.3,246.5,40.3z"/>
<path d="M246.5,130.7H5.9c-3.3,0-5.9-2.7-5.9-5.9V96.4c0-3.3,2.7-5.9,5.9-5.9h240.5c3.3,0,5.9,2.7,5.9,5.9v28.4
	C252.4,128,249.7,130.7,246.5,130.7z"/>
<path d="M246.5,221.2H5.9c-3.3,0-5.9-2.7-5.9-5.9v-28.4c0-3.3,2.7-5.9,5.9-5.9h240.5c3.3,0,5.9,2.7,5.9,5.9v28.4
	C252.4,218.5,249.7,221.2,246.5,221.2z"/>
</svg>
