<?xml version="1.0" encoding="utf-8"?>
<!-- Generator: Adobe Illustrator 21.1.0, SVG Export Plug-In . SVG Version: 6.00 Build 0)  -->
<svg version="1.1" id="Capa_1" xmlns="http://www.w3.org/2000/svg" xmlns:xlink="http://www.w3.org/1999/xlink" x="0px" y="0px"
	 viewBox="0 0 143.2 319.5" style="enable-background:new 0 0 143.2 319.5;" xml:space="preserve">
<style type="text/css">
	.st0{fill:#FFFFFF;}
</style>
<g>
	<path class="st0" d="M13.1,10.2v43.3l6.5,2.5v1.2H4.1V56l6.5-2.5V2.5L5.7,1.2V0h10.2c2.8,0,5.1,0.6,6.7,1.8C24.4,2.9,25.8,4.7,27,7
		l17.8,34.1L58.5,7c0.9-2.4,2.2-4.2,3.8-5.3c1.6-1.1,4-1.7,7.3-1.7h8.6v1.2l-4.9,1.2v52.3l4.9,1.2v1.2H54.8V56l4.9-1.2V10.2
		L40.5,58.1H38L13.1,10.2z"/>
	<path class="st0" d="M99.5,52.8c-4.1-3.8-6.2-9.1-6.2-16V2.5l-4.9-1.2V0h23.3v1.2l-4.9,1.2v34.4c0,7,1.1,12.1,3.3,15.1
		c2.2,3,5.3,4.5,9.4,4.5c2.5,0,4.9-0.8,7.2-2.4c2.3-1.6,4.1-3.9,5.5-6.9c1.4-3,2.1-6.4,2.1-10.3V3.7l-6.5-2.5V0h15.5v1.2l-6.5,2.5
		v33.1c0,4.4-0.8,8.3-2.5,11.5s-3.9,5.8-6.7,7.5c-2.8,1.7-6.1,2.6-9.7,2.6C109.8,58.5,103.7,56.6,99.5,52.8z"/>
	<path class="st0" d="M13.1,100.9v39.7l6.5,2.5v1.2H4.1V143l6.5-2.5V89.9l-5.7-1.6V87h8.6c2.9,0,5.2,0.5,6.8,1.6
		c1.6,1,3.2,2.4,4.7,4.2l26.2,30.7V90.7l-6.5-2.5V87h15.5v1.2l-6.5,2.5v54.8h-2.5L13.1,100.9z"/>
	<path class="st0" d="M68.8,143l4.9-1.2V89.5l-4.9-1.2V87h20.9c9.8,0,17.2,2.5,22.5,7.5c5.2,5,7.8,12.1,7.8,21.1
		c0,9.1-2.6,16.1-7.8,21.1c-5.2,5-12.7,7.5-22.5,7.5H68.8V143z M89.6,142.2c5.1,0,9-2.1,11.8-6.2c2.8-4.1,4.2-10.9,4.2-20.4
		c0-9.5-1.4-16.3-4.2-20.4c-2.8-4.1-6.7-6.2-11.8-6.2h-2.5v53.2H89.6z"/>
	<path class="st0" d="M5.7,231.3V230l4.9-1.2v-52.3l-4.9-1.2V174H29v1.2l-4.9,1.2v52.3L29,230v1.2H5.7z"/>
	<path class="st0" d="M47.5,224.7c-4.9-5.2-7.4-12.5-7.4-22.1c0-6.3,1.1-11.7,3.2-16.2c2.2-4.5,5.2-7.9,9.1-10.2
		c3.9-2.3,8.4-3.5,13.5-3.5c3.1,0,6.2,0.9,9.4,2.7c1.2,0.7,2.4,1.5,3.6,2.6c0.9-1.4,1.9-2.5,2.9-3.4c1-0.7,1.5-1.1,1.6-1.1h2v15.5
		h-3.3c-0.7-2.6-1.8-5-3.2-7.1c-1.3-2.1-2.9-3.8-4.9-5.2c-1.9-1.4-4.2-2-6.7-2c-3.8,0-6.9,2.2-9.4,6.5c-2.5,4.4-3.7,11.5-3.7,21.3
		c0,10,1.3,17.1,4,21.4c2.7,4.3,6.4,6.4,11.1,6.4c2.6,0,5-0.7,7.3-2.2c2.3-1.4,4.2-3.4,5.6-5.8c1.4-2.4,2.2-4.9,2.2-7.6h2
		c0,3.1-0.8,6-2.5,8.7c-1.7,2.7-3.9,4.9-6.8,6.5c-2.9,1.6-6,2.4-9.5,2.4C59.2,232.5,52.4,229.9,47.5,224.7z"/>
	<path class="st0" d="M97.1,231.3V230l4.9-1.2v-52.3l-4.9-1.2V174h23.3v1.2l-4.9,1.2v52.3l4.9,1.2v1.2H97.1z"/>
	<path class="st0" d="M0,317l6.5-2.5L29,260.2h2.5l23.3,55.6l4.1,1.2v1.2h-9.8c-2.8,0-5.2-0.6-7-1.9c-1.8-1.3-3.1-3-4-5l-4.2-9.8
		H14.4L9,314.6l6.1,2.5v1.2H0V317z M15.2,299.4h17.9l-9-21.5L15.2,299.4z"/>
	<path class="st0" d="M73.9,316.9c-1.5-0.8-2.8-1.7-3.8-2.7c-0.8,1.3-1.7,2.4-2.9,3.4c-1,0.7-1.5,1.1-1.6,1.1h-2v-15.5h3.3
		c0.8,2.7,2,5.1,3.4,7.2c3.3,4.7,7.6,7.1,12.9,7.1c3.1,0,5.6-0.9,7.4-2.8c1.9-1.9,2.8-4.3,2.8-7.4c0-1.8-0.5-3.4-1.6-4.8
		s-2.4-2.7-4-3.8c-1.6-1.1-3.8-2.5-6.6-4.1c-3.6-2-6.5-3.8-8.8-5.5c-2.2-1.6-4.1-3.7-5.7-6.2c-1.6-2.5-2.4-5.4-2.4-8.8
		c0-2.7,0.7-5.1,2.2-7.2c1.5-2.2,3.7-3.9,6.7-5.2c3-1.3,6.7-1.9,11-1.9c3.2,0,6.3,0.9,9.5,2.7c1.2,0.7,2.4,1.5,3.6,2.6
		c0.9-1.4,1.9-2.5,2.9-3.4c1-0.7,1.5-1.1,1.6-1.1h2v15.5h-3.3c-0.7-2.6-1.8-5-3.2-7.1c-1.3-2.1-2.9-3.8-4.9-5.2
		c-1.9-1.4-4.2-2-6.7-2c-2.1,0-4,0.8-5.5,2.5c-1.5,1.7-2.3,3.8-2.3,6.5c0,2,0.6,3.8,1.8,5.4c1.2,1.6,2.6,3,4.3,4.2
		c1.7,1.2,4,2.6,7,4.3c3.4,2,6.2,3.7,8.3,5.2c2.1,1.5,3.9,3.4,5.4,5.7c1.5,2.3,2.2,4.9,2.2,7.8s-0.8,5.6-2.5,8.1
		c-1.7,2.4-4.2,4.3-7.6,5.8c-3.4,1.4-7.5,2.1-12.3,2.1C80.9,319.5,77.2,318.6,73.9,316.9z"/>
</g>
</svg>
